<mxfile host="app.diagrams.net" modified="2024-04-15T08:45:33.492Z" agent="Mozilla/5.0 (Windows NT 10.0; Win64; x64) AppleWebKit/537.36 (KHTML, like Gecko) Chrome/123.0.0.0 Safari/537.36" etag="6E_xW3WF3qixjroa2ajw" version="24.2.5" type="github">
  <diagram id="6a731a19-8d31-9384-78a2-239565b7b9f0" name="Page-1">
    <mxGraphModel dx="2603" dy="772" grid="1" gridSize="10" guides="1" tooltips="1" connect="1" arrows="1" fold="1" page="1" pageScale="1" pageWidth="1169" pageHeight="827" background="none" math="0" shadow="0">
      <root>
        <mxCell id="0" />
        <mxCell id="1" parent="0" />
        <mxCell id="wIFYtktn1aGhjq1MG3Bt-1784" value="Mindmap" style="swimlane;startSize=20;horizontal=1;containerType=tree;" vertex="1" parent="1">
          <mxGeometry x="-1159" y="30" width="1150" height="1150" as="geometry" />
        </mxCell>
        <mxCell id="wIFYtktn1aGhjq1MG3Bt-1789" value="测试技术" style="ellipse;whiteSpace=wrap;html=1;align=center;treeFolding=1;treeMoving=1;newEdgeStyle={&quot;edgeStyle&quot;:&quot;entityRelationEdgeStyle&quot;,&quot;startArrow&quot;:&quot;none&quot;,&quot;endArrow&quot;:&quot;none&quot;,&quot;segment&quot;:10,&quot;curved&quot;:1,&quot;sourcePerimeterSpacing&quot;:0,&quot;targetPerimeterSpacing&quot;:0};" vertex="1" parent="wIFYtktn1aGhjq1MG3Bt-1784">
          <mxGeometry x="89" y="341" width="100" height="40" as="geometry" />
        </mxCell>
        <mxCell id="wIFYtktn1aGhjq1MG3Bt-1794" value="" style="edgeStyle=entityRelationEdgeStyle;rounded=0;orthogonalLoop=1;jettySize=auto;html=1;startArrow=none;endArrow=none;segment=10;curved=1;sourcePerimeterSpacing=0;targetPerimeterSpacing=0;" edge="1" source="wIFYtktn1aGhjq1MG3Bt-1789" target="wIFYtktn1aGhjq1MG3Bt-1795" parent="wIFYtktn1aGhjq1MG3Bt-1784">
          <mxGeometry relative="1" as="geometry" />
        </mxCell>
        <mxCell id="wIFYtktn1aGhjq1MG3Bt-1795" value="基于直觉/经验" style="ellipse;whiteSpace=wrap;html=1;align=center;treeFolding=1;treeMoving=1;newEdgeStyle={&quot;edgeStyle&quot;:&quot;entityRelationEdgeStyle&quot;,&quot;startArrow&quot;:&quot;none&quot;,&quot;endArrow&quot;:&quot;none&quot;,&quot;segment&quot;:10,&quot;curved&quot;:1,&quot;sourcePerimeterSpacing&quot;:0,&quot;targetPerimeterSpacing&quot;:0};" vertex="1" parent="wIFYtktn1aGhjq1MG3Bt-1784">
          <mxGeometry x="289" y="121" width="100" height="40" as="geometry" />
        </mxCell>
        <mxCell id="wIFYtktn1aGhjq1MG3Bt-1796" value="" style="edgeStyle=entityRelationEdgeStyle;rounded=0;orthogonalLoop=1;jettySize=auto;html=1;startArrow=none;endArrow=none;segment=10;curved=1;sourcePerimeterSpacing=0;targetPerimeterSpacing=0;" edge="1" target="wIFYtktn1aGhjq1MG3Bt-1797" source="wIFYtktn1aGhjq1MG3Bt-1789" parent="wIFYtktn1aGhjq1MG3Bt-1784">
          <mxGeometry relative="1" as="geometry">
            <mxPoint x="-920" y="286" as="sourcePoint" />
          </mxGeometry>
        </mxCell>
        <mxCell id="wIFYtktn1aGhjq1MG3Bt-1797" value="基于输入域" style="ellipse;whiteSpace=wrap;html=1;align=center;treeFolding=1;treeMoving=1;newEdgeStyle={&quot;edgeStyle&quot;:&quot;entityRelationEdgeStyle&quot;,&quot;startArrow&quot;:&quot;none&quot;,&quot;endArrow&quot;:&quot;none&quot;,&quot;segment&quot;:10,&quot;curved&quot;:1,&quot;sourcePerimeterSpacing&quot;:0,&quot;targetPerimeterSpacing&quot;:0};" vertex="1" parent="wIFYtktn1aGhjq1MG3Bt-1784">
          <mxGeometry x="289" y="270" width="100" height="40" as="geometry" />
        </mxCell>
        <mxCell id="wIFYtktn1aGhjq1MG3Bt-1798" value="" style="edgeStyle=entityRelationEdgeStyle;rounded=0;orthogonalLoop=1;jettySize=auto;html=1;startArrow=none;endArrow=none;segment=10;curved=1;sourcePerimeterSpacing=0;targetPerimeterSpacing=0;" edge="1" target="wIFYtktn1aGhjq1MG3Bt-1799" source="wIFYtktn1aGhjq1MG3Bt-1789" parent="wIFYtktn1aGhjq1MG3Bt-1784">
          <mxGeometry relative="1" as="geometry">
            <mxPoint x="-920" y="286" as="sourcePoint" />
          </mxGeometry>
        </mxCell>
        <mxCell id="wIFYtktn1aGhjq1MG3Bt-1799" value="基于代码" style="ellipse;whiteSpace=wrap;html=1;align=center;treeFolding=1;treeMoving=1;newEdgeStyle={&quot;edgeStyle&quot;:&quot;entityRelationEdgeStyle&quot;,&quot;startArrow&quot;:&quot;none&quot;,&quot;endArrow&quot;:&quot;none&quot;,&quot;segment&quot;:10,&quot;curved&quot;:1,&quot;sourcePerimeterSpacing&quot;:0,&quot;targetPerimeterSpacing&quot;:0};" vertex="1" parent="wIFYtktn1aGhjq1MG3Bt-1784">
          <mxGeometry x="280" y="450" width="100" height="40" as="geometry" />
        </mxCell>
        <mxCell id="wIFYtktn1aGhjq1MG3Bt-1800" value="" style="edgeStyle=entityRelationEdgeStyle;rounded=0;orthogonalLoop=1;jettySize=auto;html=1;startArrow=none;endArrow=none;segment=10;curved=1;sourcePerimeterSpacing=0;targetPerimeterSpacing=0;" edge="1" target="wIFYtktn1aGhjq1MG3Bt-1801" source="wIFYtktn1aGhjq1MG3Bt-1789" parent="wIFYtktn1aGhjq1MG3Bt-1784">
          <mxGeometry relative="1" as="geometry">
            <mxPoint x="-920" y="286" as="sourcePoint" />
          </mxGeometry>
        </mxCell>
        <mxCell id="wIFYtktn1aGhjq1MG3Bt-1801" value="基于错误" style="ellipse;whiteSpace=wrap;html=1;align=center;treeFolding=1;treeMoving=1;newEdgeStyle={&quot;edgeStyle&quot;:&quot;entityRelationEdgeStyle&quot;,&quot;startArrow&quot;:&quot;none&quot;,&quot;endArrow&quot;:&quot;none&quot;,&quot;segment&quot;:10,&quot;curved&quot;:1,&quot;sourcePerimeterSpacing&quot;:0,&quot;targetPerimeterSpacing&quot;:0};" vertex="1" parent="wIFYtktn1aGhjq1MG3Bt-1784">
          <mxGeometry x="289" y="580" width="100" height="40" as="geometry" />
        </mxCell>
        <mxCell id="wIFYtktn1aGhjq1MG3Bt-1802" value="" style="edgeStyle=entityRelationEdgeStyle;rounded=0;orthogonalLoop=1;jettySize=auto;html=1;startArrow=none;endArrow=none;segment=10;curved=1;sourcePerimeterSpacing=0;targetPerimeterSpacing=0;" edge="1" target="wIFYtktn1aGhjq1MG3Bt-1803" source="wIFYtktn1aGhjq1MG3Bt-1789" parent="wIFYtktn1aGhjq1MG3Bt-1784">
          <mxGeometry relative="1" as="geometry">
            <mxPoint x="-920" y="286" as="sourcePoint" />
          </mxGeometry>
        </mxCell>
        <mxCell id="wIFYtktn1aGhjq1MG3Bt-1803" value="基于模型" style="ellipse;whiteSpace=wrap;html=1;align=center;treeFolding=1;treeMoving=1;newEdgeStyle={&quot;edgeStyle&quot;:&quot;entityRelationEdgeStyle&quot;,&quot;startArrow&quot;:&quot;none&quot;,&quot;endArrow&quot;:&quot;none&quot;,&quot;segment&quot;:10,&quot;curved&quot;:1,&quot;sourcePerimeterSpacing&quot;:0,&quot;targetPerimeterSpacing&quot;:0};" vertex="1" parent="wIFYtktn1aGhjq1MG3Bt-1784">
          <mxGeometry x="289" y="700" width="100" height="40" as="geometry" />
        </mxCell>
        <mxCell id="wIFYtktn1aGhjq1MG3Bt-1804" value="" style="edgeStyle=entityRelationEdgeStyle;rounded=0;orthogonalLoop=1;jettySize=auto;html=1;startArrow=none;endArrow=none;segment=10;curved=1;sourcePerimeterSpacing=0;targetPerimeterSpacing=0;" edge="1" target="wIFYtktn1aGhjq1MG3Bt-1805" source="wIFYtktn1aGhjq1MG3Bt-1789" parent="wIFYtktn1aGhjq1MG3Bt-1784">
          <mxGeometry relative="1" as="geometry">
            <mxPoint x="-920" y="286" as="sourcePoint" />
          </mxGeometry>
        </mxCell>
        <mxCell id="wIFYtktn1aGhjq1MG3Bt-1805" value="基于使用" style="ellipse;whiteSpace=wrap;html=1;align=center;treeFolding=1;treeMoving=1;newEdgeStyle={&quot;edgeStyle&quot;:&quot;entityRelationEdgeStyle&quot;,&quot;startArrow&quot;:&quot;none&quot;,&quot;endArrow&quot;:&quot;none&quot;,&quot;segment&quot;:10,&quot;curved&quot;:1,&quot;sourcePerimeterSpacing&quot;:0,&quot;targetPerimeterSpacing&quot;:0};" vertex="1" parent="wIFYtktn1aGhjq1MG3Bt-1784">
          <mxGeometry x="289" y="860" width="100" height="40" as="geometry" />
        </mxCell>
        <mxCell id="wIFYtktn1aGhjq1MG3Bt-1806" value="" style="edgeStyle=entityRelationEdgeStyle;rounded=0;orthogonalLoop=1;jettySize=auto;html=1;startArrow=none;endArrow=none;segment=10;curved=1;sourcePerimeterSpacing=0;targetPerimeterSpacing=0;" edge="1" target="wIFYtktn1aGhjq1MG3Bt-1807" source="wIFYtktn1aGhjq1MG3Bt-1789" parent="wIFYtktn1aGhjq1MG3Bt-1784">
          <mxGeometry relative="1" as="geometry">
            <mxPoint x="-920" y="286" as="sourcePoint" />
          </mxGeometry>
        </mxCell>
        <mxCell id="wIFYtktn1aGhjq1MG3Bt-1807" value="基于应用特性" style="ellipse;whiteSpace=wrap;html=1;align=center;treeFolding=1;treeMoving=1;newEdgeStyle={&quot;edgeStyle&quot;:&quot;entityRelationEdgeStyle&quot;,&quot;startArrow&quot;:&quot;none&quot;,&quot;endArrow&quot;:&quot;none&quot;,&quot;segment&quot;:10,&quot;curved&quot;:1,&quot;sourcePerimeterSpacing&quot;:0,&quot;targetPerimeterSpacing&quot;:0};" vertex="1" parent="wIFYtktn1aGhjq1MG3Bt-1784">
          <mxGeometry x="289" y="910" width="100" height="40" as="geometry" />
        </mxCell>
        <mxCell id="wIFYtktn1aGhjq1MG3Bt-1810" value="" style="edgeStyle=entityRelationEdgeStyle;rounded=0;orthogonalLoop=1;jettySize=auto;html=1;startArrow=none;endArrow=none;segment=10;curved=1;sourcePerimeterSpacing=0;targetPerimeterSpacing=0;" edge="1" target="wIFYtktn1aGhjq1MG3Bt-1811" source="wIFYtktn1aGhjq1MG3Bt-1795" parent="wIFYtktn1aGhjq1MG3Bt-1784">
          <mxGeometry relative="1" as="geometry">
            <mxPoint x="-970" y="380" as="sourcePoint" />
          </mxGeometry>
        </mxCell>
        <mxCell id="wIFYtktn1aGhjq1MG3Bt-1854" style="rounded=0;orthogonalLoop=1;jettySize=auto;html=1;startArrow=none;endArrow=none;segment=10;sourcePerimeterSpacing=0;targetPerimeterSpacing=0;exitX=1;exitY=0.5;exitDx=0;exitDy=0;entryX=0;entryY=0.5;entryDx=0;entryDy=0;fillColor=#dae8fc;strokeColor=#6c8ebf;" edge="1" parent="wIFYtktn1aGhjq1MG3Bt-1784" source="wIFYtktn1aGhjq1MG3Bt-1811" target="wIFYtktn1aGhjq1MG3Bt-1852">
          <mxGeometry relative="1" as="geometry" />
        </mxCell>
        <mxCell id="wIFYtktn1aGhjq1MG3Bt-1811" value="Ad Hoc&lt;div&gt;完全依靠个人发挥&lt;/div&gt;" style="ellipse;whiteSpace=wrap;html=1;align=center;treeFolding=1;treeMoving=1;newEdgeStyle={&quot;edgeStyle&quot;:&quot;entityRelationEdgeStyle&quot;,&quot;startArrow&quot;:&quot;none&quot;,&quot;endArrow&quot;:&quot;none&quot;,&quot;segment&quot;:10,&quot;curved&quot;:1,&quot;sourcePerimeterSpacing&quot;:0,&quot;targetPerimeterSpacing&quot;:0};" vertex="1" parent="wIFYtktn1aGhjq1MG3Bt-1784">
          <mxGeometry x="439" y="101" width="100" height="40" as="geometry" />
        </mxCell>
        <mxCell id="wIFYtktn1aGhjq1MG3Bt-1812" value="" style="edgeStyle=entityRelationEdgeStyle;rounded=0;orthogonalLoop=1;jettySize=auto;html=1;startArrow=none;endArrow=none;segment=10;curved=1;sourcePerimeterSpacing=0;targetPerimeterSpacing=0;" edge="1" target="wIFYtktn1aGhjq1MG3Bt-1813" source="wIFYtktn1aGhjq1MG3Bt-1795" parent="wIFYtktn1aGhjq1MG3Bt-1784">
          <mxGeometry relative="1" as="geometry">
            <mxPoint x="-779" y="249" as="sourcePoint" />
          </mxGeometry>
        </mxCell>
        <mxCell id="wIFYtktn1aGhjq1MG3Bt-1855" style="rounded=0;orthogonalLoop=1;jettySize=auto;html=1;startArrow=none;endArrow=none;segment=10;sourcePerimeterSpacing=0;targetPerimeterSpacing=0;exitX=1;exitY=0.5;exitDx=0;exitDy=0;entryX=0;entryY=0.5;entryDx=0;entryDy=0;fillColor=#dae8fc;strokeColor=#6c8ebf;" edge="1" parent="wIFYtktn1aGhjq1MG3Bt-1784" source="wIFYtktn1aGhjq1MG3Bt-1813" target="wIFYtktn1aGhjq1MG3Bt-1852">
          <mxGeometry relative="1" as="geometry" />
        </mxCell>
        <mxCell id="wIFYtktn1aGhjq1MG3Bt-1813" value="探索式测试" style="ellipse;whiteSpace=wrap;html=1;align=center;treeFolding=1;treeMoving=1;newEdgeStyle={&quot;edgeStyle&quot;:&quot;entityRelationEdgeStyle&quot;,&quot;startArrow&quot;:&quot;none&quot;,&quot;endArrow&quot;:&quot;none&quot;,&quot;segment&quot;:10,&quot;curved&quot;:1,&quot;sourcePerimeterSpacing&quot;:0,&quot;targetPerimeterSpacing&quot;:0};" vertex="1" parent="wIFYtktn1aGhjq1MG3Bt-1784">
          <mxGeometry x="439" y="151" width="100" height="40" as="geometry" />
        </mxCell>
        <mxCell id="wIFYtktn1aGhjq1MG3Bt-1814" value="" style="edgeStyle=entityRelationEdgeStyle;rounded=0;orthogonalLoop=1;jettySize=auto;html=1;startArrow=none;endArrow=none;segment=10;curved=1;sourcePerimeterSpacing=0;targetPerimeterSpacing=0;" edge="1" target="wIFYtktn1aGhjq1MG3Bt-1815" source="wIFYtktn1aGhjq1MG3Bt-1797" parent="wIFYtktn1aGhjq1MG3Bt-1784">
          <mxGeometry relative="1" as="geometry">
            <mxPoint x="-970" y="341" as="sourcePoint" />
          </mxGeometry>
        </mxCell>
        <mxCell id="wIFYtktn1aGhjq1MG3Bt-1856" style="rounded=0;orthogonalLoop=1;jettySize=auto;html=1;startArrow=none;endArrow=none;segment=10;sourcePerimeterSpacing=0;targetPerimeterSpacing=0;exitX=1;exitY=0.5;exitDx=0;exitDy=0;entryX=0;entryY=0.5;entryDx=0;entryDy=0;fillColor=#dae8fc;strokeColor=#6c8ebf;" edge="1" parent="wIFYtktn1aGhjq1MG3Bt-1784" source="wIFYtktn1aGhjq1MG3Bt-1815" target="wIFYtktn1aGhjq1MG3Bt-1852">
          <mxGeometry relative="1" as="geometry" />
        </mxCell>
        <mxCell id="wIFYtktn1aGhjq1MG3Bt-1815" value="等价域划分" style="ellipse;whiteSpace=wrap;html=1;align=center;treeFolding=1;treeMoving=1;newEdgeStyle={&quot;edgeStyle&quot;:&quot;entityRelationEdgeStyle&quot;,&quot;startArrow&quot;:&quot;none&quot;,&quot;endArrow&quot;:&quot;none&quot;,&quot;segment&quot;:10,&quot;curved&quot;:1,&quot;sourcePerimeterSpacing&quot;:0,&quot;targetPerimeterSpacing&quot;:0};" vertex="1" parent="wIFYtktn1aGhjq1MG3Bt-1784">
          <mxGeometry x="439" y="210" width="100" height="40" as="geometry" />
        </mxCell>
        <mxCell id="wIFYtktn1aGhjq1MG3Bt-1816" value="" style="edgeStyle=entityRelationEdgeStyle;rounded=0;orthogonalLoop=1;jettySize=auto;html=1;startArrow=none;endArrow=none;segment=10;curved=1;sourcePerimeterSpacing=0;targetPerimeterSpacing=0;" edge="1" target="wIFYtktn1aGhjq1MG3Bt-1817" source="wIFYtktn1aGhjq1MG3Bt-1797" parent="wIFYtktn1aGhjq1MG3Bt-1784">
          <mxGeometry relative="1" as="geometry">
            <mxPoint x="-770" y="220" as="sourcePoint" />
          </mxGeometry>
        </mxCell>
        <mxCell id="wIFYtktn1aGhjq1MG3Bt-1857" style="rounded=0;orthogonalLoop=1;jettySize=auto;html=1;startArrow=none;endArrow=none;segment=10;sourcePerimeterSpacing=0;targetPerimeterSpacing=0;exitX=1;exitY=0.5;exitDx=0;exitDy=0;entryX=0;entryY=0.5;entryDx=0;entryDy=0;fillColor=#dae8fc;strokeColor=#6c8ebf;" edge="1" parent="wIFYtktn1aGhjq1MG3Bt-1784" source="wIFYtktn1aGhjq1MG3Bt-1817" target="wIFYtktn1aGhjq1MG3Bt-1852">
          <mxGeometry relative="1" as="geometry" />
        </mxCell>
        <mxCell id="wIFYtktn1aGhjq1MG3Bt-1817" value="边界值分析" style="ellipse;whiteSpace=wrap;html=1;align=center;treeFolding=1;treeMoving=1;newEdgeStyle={&quot;edgeStyle&quot;:&quot;entityRelationEdgeStyle&quot;,&quot;startArrow&quot;:&quot;none&quot;,&quot;endArrow&quot;:&quot;none&quot;,&quot;segment&quot;:10,&quot;curved&quot;:1,&quot;sourcePerimeterSpacing&quot;:0,&quot;targetPerimeterSpacing&quot;:0};" vertex="1" parent="wIFYtktn1aGhjq1MG3Bt-1784">
          <mxGeometry x="439" y="260" width="100" height="40" as="geometry" />
        </mxCell>
        <mxCell id="wIFYtktn1aGhjq1MG3Bt-1818" value="" style="edgeStyle=entityRelationEdgeStyle;rounded=0;orthogonalLoop=1;jettySize=auto;html=1;startArrow=none;endArrow=none;segment=10;curved=1;sourcePerimeterSpacing=0;targetPerimeterSpacing=0;" edge="1" target="wIFYtktn1aGhjq1MG3Bt-1819" source="wIFYtktn1aGhjq1MG3Bt-1797" parent="wIFYtktn1aGhjq1MG3Bt-1784">
          <mxGeometry relative="1" as="geometry">
            <mxPoint x="-770" y="220" as="sourcePoint" />
          </mxGeometry>
        </mxCell>
        <mxCell id="wIFYtktn1aGhjq1MG3Bt-1859" style="rounded=0;orthogonalLoop=1;jettySize=auto;html=1;startArrow=none;endArrow=none;segment=10;sourcePerimeterSpacing=0;targetPerimeterSpacing=0;exitX=1;exitY=0.5;exitDx=0;exitDy=0;entryX=0;entryY=0.5;entryDx=0;entryDy=0;fillColor=#dae8fc;strokeColor=#6c8ebf;" edge="1" parent="wIFYtktn1aGhjq1MG3Bt-1784" source="wIFYtktn1aGhjq1MG3Bt-1819" target="wIFYtktn1aGhjq1MG3Bt-1852">
          <mxGeometry relative="1" as="geometry" />
        </mxCell>
        <mxCell id="wIFYtktn1aGhjq1MG3Bt-1819" value="组合测试" style="ellipse;whiteSpace=wrap;html=1;align=center;treeFolding=1;treeMoving=1;newEdgeStyle={&quot;edgeStyle&quot;:&quot;entityRelationEdgeStyle&quot;,&quot;startArrow&quot;:&quot;none&quot;,&quot;endArrow&quot;:&quot;none&quot;,&quot;segment&quot;:10,&quot;curved&quot;:1,&quot;sourcePerimeterSpacing&quot;:0,&quot;targetPerimeterSpacing&quot;:0};" vertex="1" parent="wIFYtktn1aGhjq1MG3Bt-1784">
          <mxGeometry x="439" y="360" width="100" height="40" as="geometry" />
        </mxCell>
        <mxCell id="wIFYtktn1aGhjq1MG3Bt-1820" value="" style="edgeStyle=entityRelationEdgeStyle;rounded=0;orthogonalLoop=1;jettySize=auto;html=1;startArrow=none;endArrow=none;segment=10;curved=1;sourcePerimeterSpacing=0;targetPerimeterSpacing=0;" edge="1" target="wIFYtktn1aGhjq1MG3Bt-1821" source="wIFYtktn1aGhjq1MG3Bt-1797" parent="wIFYtktn1aGhjq1MG3Bt-1784">
          <mxGeometry relative="1" as="geometry">
            <mxPoint x="-770" y="220" as="sourcePoint" />
          </mxGeometry>
        </mxCell>
        <mxCell id="wIFYtktn1aGhjq1MG3Bt-1858" style="rounded=0;orthogonalLoop=1;jettySize=auto;html=1;startArrow=none;endArrow=none;segment=10;sourcePerimeterSpacing=0;targetPerimeterSpacing=0;exitX=1;exitY=0.5;exitDx=0;exitDy=0;entryX=0;entryY=0.5;entryDx=0;entryDy=0;fillColor=#dae8fc;strokeColor=#6c8ebf;" edge="1" parent="wIFYtktn1aGhjq1MG3Bt-1784" source="wIFYtktn1aGhjq1MG3Bt-1821" target="wIFYtktn1aGhjq1MG3Bt-1852">
          <mxGeometry relative="1" as="geometry">
            <mxPoint x="799" y="360" as="targetPoint" />
          </mxGeometry>
        </mxCell>
        <mxCell id="wIFYtktn1aGhjq1MG3Bt-1821" value="随机测试" style="ellipse;whiteSpace=wrap;html=1;align=center;treeFolding=1;treeMoving=1;newEdgeStyle={&quot;edgeStyle&quot;:&quot;entityRelationEdgeStyle&quot;,&quot;startArrow&quot;:&quot;none&quot;,&quot;endArrow&quot;:&quot;none&quot;,&quot;segment&quot;:10,&quot;curved&quot;:1,&quot;sourcePerimeterSpacing&quot;:0,&quot;targetPerimeterSpacing&quot;:0};" vertex="1" parent="wIFYtktn1aGhjq1MG3Bt-1784">
          <mxGeometry x="439" y="310" width="100" height="40" as="geometry" />
        </mxCell>
        <mxCell id="wIFYtktn1aGhjq1MG3Bt-1823" value="" style="edgeStyle=entityRelationEdgeStyle;rounded=0;orthogonalLoop=1;jettySize=auto;html=1;startArrow=none;endArrow=none;segment=10;curved=1;sourcePerimeterSpacing=0;targetPerimeterSpacing=0;" edge="1" target="wIFYtktn1aGhjq1MG3Bt-1824" source="wIFYtktn1aGhjq1MG3Bt-1799" parent="wIFYtktn1aGhjq1MG3Bt-1784">
          <mxGeometry relative="1" as="geometry">
            <mxPoint x="-970" y="331" as="sourcePoint" />
          </mxGeometry>
        </mxCell>
        <mxCell id="wIFYtktn1aGhjq1MG3Bt-1866" style="rounded=0;orthogonalLoop=1;jettySize=auto;html=1;startArrow=none;endArrow=none;segment=10;sourcePerimeterSpacing=0;targetPerimeterSpacing=0;exitX=1;exitY=0.5;exitDx=0;exitDy=0;entryX=0;entryY=0.5;entryDx=0;entryDy=0;fillColor=#ffe6cc;strokeColor=#d79b00;" edge="1" parent="wIFYtktn1aGhjq1MG3Bt-1784" source="wIFYtktn1aGhjq1MG3Bt-1824" target="wIFYtktn1aGhjq1MG3Bt-1865">
          <mxGeometry relative="1" as="geometry" />
        </mxCell>
        <mxCell id="wIFYtktn1aGhjq1MG3Bt-1824" value="参考模型-代码抽象" style="ellipse;whiteSpace=wrap;html=1;align=center;treeFolding=1;treeMoving=1;newEdgeStyle={&quot;edgeStyle&quot;:&quot;entityRelationEdgeStyle&quot;,&quot;startArrow&quot;:&quot;none&quot;,&quot;endArrow&quot;:&quot;none&quot;,&quot;segment&quot;:10,&quot;curved&quot;:1,&quot;sourcePerimeterSpacing&quot;:0,&quot;targetPerimeterSpacing&quot;:0};" vertex="1" parent="wIFYtktn1aGhjq1MG3Bt-1784">
          <mxGeometry x="439" y="410" width="100" height="40" as="geometry" />
        </mxCell>
        <mxCell id="wIFYtktn1aGhjq1MG3Bt-1825" value="" style="edgeStyle=entityRelationEdgeStyle;rounded=0;orthogonalLoop=1;jettySize=auto;html=1;startArrow=none;endArrow=none;segment=10;curved=1;sourcePerimeterSpacing=0;targetPerimeterSpacing=0;" edge="1" target="wIFYtktn1aGhjq1MG3Bt-1826" source="wIFYtktn1aGhjq1MG3Bt-1799" parent="wIFYtktn1aGhjq1MG3Bt-1784">
          <mxGeometry relative="1" as="geometry">
            <mxPoint x="-779" y="450" as="sourcePoint" />
          </mxGeometry>
        </mxCell>
        <mxCell id="wIFYtktn1aGhjq1MG3Bt-1867" style="rounded=0;orthogonalLoop=1;jettySize=auto;html=1;startArrow=none;endArrow=none;segment=10;sourcePerimeterSpacing=0;targetPerimeterSpacing=0;exitX=1;exitY=0.5;exitDx=0;exitDy=0;fillColor=#ffe6cc;strokeColor=#d79b00;" edge="1" parent="wIFYtktn1aGhjq1MG3Bt-1784" source="wIFYtktn1aGhjq1MG3Bt-1826">
          <mxGeometry relative="1" as="geometry">
            <mxPoint x="799" y="690" as="targetPoint" />
          </mxGeometry>
        </mxCell>
        <mxCell id="wIFYtktn1aGhjq1MG3Bt-1826" value="控制流" style="ellipse;whiteSpace=wrap;html=1;align=center;treeFolding=1;treeMoving=1;newEdgeStyle={&quot;edgeStyle&quot;:&quot;entityRelationEdgeStyle&quot;,&quot;startArrow&quot;:&quot;none&quot;,&quot;endArrow&quot;:&quot;none&quot;,&quot;segment&quot;:10,&quot;curved&quot;:1,&quot;sourcePerimeterSpacing&quot;:0,&quot;targetPerimeterSpacing&quot;:0};" vertex="1" parent="wIFYtktn1aGhjq1MG3Bt-1784">
          <mxGeometry x="439" y="460" width="100" height="40" as="geometry" />
        </mxCell>
        <mxCell id="wIFYtktn1aGhjq1MG3Bt-1827" value="" style="edgeStyle=entityRelationEdgeStyle;rounded=0;orthogonalLoop=1;jettySize=auto;html=1;startArrow=none;endArrow=none;segment=10;curved=1;sourcePerimeterSpacing=0;targetPerimeterSpacing=0;" edge="1" target="wIFYtktn1aGhjq1MG3Bt-1828" source="wIFYtktn1aGhjq1MG3Bt-1799" parent="wIFYtktn1aGhjq1MG3Bt-1784">
          <mxGeometry relative="1" as="geometry">
            <mxPoint x="-779" y="450" as="sourcePoint" />
          </mxGeometry>
        </mxCell>
        <mxCell id="wIFYtktn1aGhjq1MG3Bt-1868" style="rounded=0;orthogonalLoop=1;jettySize=auto;html=1;startArrow=none;endArrow=none;segment=10;sourcePerimeterSpacing=0;targetPerimeterSpacing=0;exitX=1;exitY=0.5;exitDx=0;exitDy=0;fillColor=#ffe6cc;strokeColor=#d79b00;" edge="1" parent="wIFYtktn1aGhjq1MG3Bt-1784" source="wIFYtktn1aGhjq1MG3Bt-1828">
          <mxGeometry relative="1" as="geometry">
            <mxPoint x="799" y="690" as="targetPoint" />
          </mxGeometry>
        </mxCell>
        <mxCell id="wIFYtktn1aGhjq1MG3Bt-1828" value="数据流" style="ellipse;whiteSpace=wrap;html=1;align=center;treeFolding=1;treeMoving=1;newEdgeStyle={&quot;edgeStyle&quot;:&quot;entityRelationEdgeStyle&quot;,&quot;startArrow&quot;:&quot;none&quot;,&quot;endArrow&quot;:&quot;none&quot;,&quot;segment&quot;:10,&quot;curved&quot;:1,&quot;sourcePerimeterSpacing&quot;:0,&quot;targetPerimeterSpacing&quot;:0};" vertex="1" parent="wIFYtktn1aGhjq1MG3Bt-1784">
          <mxGeometry x="439" y="510" width="100" height="40" as="geometry" />
        </mxCell>
        <mxCell id="wIFYtktn1aGhjq1MG3Bt-1829" value="" style="edgeStyle=entityRelationEdgeStyle;rounded=0;orthogonalLoop=1;jettySize=auto;html=1;startArrow=none;endArrow=none;segment=10;curved=1;sourcePerimeterSpacing=0;targetPerimeterSpacing=0;" edge="1" target="wIFYtktn1aGhjq1MG3Bt-1830" source="wIFYtktn1aGhjq1MG3Bt-1801" parent="wIFYtktn1aGhjq1MG3Bt-1784">
          <mxGeometry relative="1" as="geometry">
            <mxPoint x="-970" y="341" as="sourcePoint" />
          </mxGeometry>
        </mxCell>
        <mxCell id="wIFYtktn1aGhjq1MG3Bt-1860" style="rounded=0;orthogonalLoop=1;jettySize=auto;html=1;startArrow=none;endArrow=none;segment=10;sourcePerimeterSpacing=0;targetPerimeterSpacing=0;exitX=1;exitY=0.5;exitDx=0;exitDy=0;entryX=0;entryY=0.5;entryDx=0;entryDy=0;fillColor=#dae8fc;strokeColor=#6c8ebf;" edge="1" parent="wIFYtktn1aGhjq1MG3Bt-1784" source="wIFYtktn1aGhjq1MG3Bt-1830" target="wIFYtktn1aGhjq1MG3Bt-1852">
          <mxGeometry relative="1" as="geometry">
            <mxPoint x="799" y="360" as="targetPoint" />
          </mxGeometry>
        </mxCell>
        <mxCell id="wIFYtktn1aGhjq1MG3Bt-1830" value="错误猜测" style="ellipse;whiteSpace=wrap;html=1;align=center;treeFolding=1;treeMoving=1;newEdgeStyle={&quot;edgeStyle&quot;:&quot;entityRelationEdgeStyle&quot;,&quot;startArrow&quot;:&quot;none&quot;,&quot;endArrow&quot;:&quot;none&quot;,&quot;segment&quot;:10,&quot;curved&quot;:1,&quot;sourcePerimeterSpacing&quot;:0,&quot;targetPerimeterSpacing&quot;:0};" vertex="1" parent="wIFYtktn1aGhjq1MG3Bt-1784">
          <mxGeometry x="439" y="560" width="100" height="40" as="geometry" />
        </mxCell>
        <mxCell id="wIFYtktn1aGhjq1MG3Bt-1831" value="" style="edgeStyle=entityRelationEdgeStyle;rounded=0;orthogonalLoop=1;jettySize=auto;html=1;startArrow=none;endArrow=none;segment=10;curved=1;sourcePerimeterSpacing=0;targetPerimeterSpacing=0;" edge="1" target="wIFYtktn1aGhjq1MG3Bt-1832" source="wIFYtktn1aGhjq1MG3Bt-1801" parent="wIFYtktn1aGhjq1MG3Bt-1784">
          <mxGeometry relative="1" as="geometry">
            <mxPoint x="-779" y="590" as="sourcePoint" />
          </mxGeometry>
        </mxCell>
        <mxCell id="wIFYtktn1aGhjq1MG3Bt-1869" style="rounded=0;orthogonalLoop=1;jettySize=auto;html=1;startArrow=none;endArrow=none;segment=10;sourcePerimeterSpacing=0;targetPerimeterSpacing=0;exitX=1;exitY=0.5;exitDx=0;exitDy=0;fillColor=#ffe6cc;strokeColor=#d79b00;" edge="1" parent="wIFYtktn1aGhjq1MG3Bt-1784" source="wIFYtktn1aGhjq1MG3Bt-1832">
          <mxGeometry relative="1" as="geometry">
            <mxPoint x="799" y="690" as="targetPoint" />
          </mxGeometry>
        </mxCell>
        <mxCell id="wIFYtktn1aGhjq1MG3Bt-1832" value="任意测试" style="ellipse;whiteSpace=wrap;html=1;align=center;treeFolding=1;treeMoving=1;newEdgeStyle={&quot;edgeStyle&quot;:&quot;entityRelationEdgeStyle&quot;,&quot;startArrow&quot;:&quot;none&quot;,&quot;endArrow&quot;:&quot;none&quot;,&quot;segment&quot;:10,&quot;curved&quot;:1,&quot;sourcePerimeterSpacing&quot;:0,&quot;targetPerimeterSpacing&quot;:0};" vertex="1" parent="wIFYtktn1aGhjq1MG3Bt-1784">
          <mxGeometry x="439" y="610" width="100" height="40" as="geometry" />
        </mxCell>
        <mxCell id="wIFYtktn1aGhjq1MG3Bt-1833" value="" style="edgeStyle=entityRelationEdgeStyle;rounded=0;orthogonalLoop=1;jettySize=auto;html=1;startArrow=none;endArrow=none;segment=10;curved=1;sourcePerimeterSpacing=0;targetPerimeterSpacing=0;" edge="1" target="wIFYtktn1aGhjq1MG3Bt-1834" source="wIFYtktn1aGhjq1MG3Bt-1803" parent="wIFYtktn1aGhjq1MG3Bt-1784">
          <mxGeometry relative="1" as="geometry">
            <mxPoint x="-970" y="341" as="sourcePoint" />
          </mxGeometry>
        </mxCell>
        <mxCell id="wIFYtktn1aGhjq1MG3Bt-1861" style="rounded=0;orthogonalLoop=1;jettySize=auto;html=1;startArrow=none;endArrow=none;segment=10;sourcePerimeterSpacing=0;targetPerimeterSpacing=0;exitX=1;exitY=0.5;exitDx=0;exitDy=0;entryX=0;entryY=0.5;entryDx=0;entryDy=0;fillColor=#dae8fc;strokeColor=#6c8ebf;" edge="1" parent="wIFYtktn1aGhjq1MG3Bt-1784" source="wIFYtktn1aGhjq1MG3Bt-1834" target="wIFYtktn1aGhjq1MG3Bt-1852">
          <mxGeometry relative="1" as="geometry" />
        </mxCell>
        <mxCell id="wIFYtktn1aGhjq1MG3Bt-1834" value="决策表" style="ellipse;whiteSpace=wrap;html=1;align=center;treeFolding=1;treeMoving=1;newEdgeStyle={&quot;edgeStyle&quot;:&quot;entityRelationEdgeStyle&quot;,&quot;startArrow&quot;:&quot;none&quot;,&quot;endArrow&quot;:&quot;none&quot;,&quot;segment&quot;:10,&quot;curved&quot;:1,&quot;sourcePerimeterSpacing&quot;:0,&quot;targetPerimeterSpacing&quot;:0};" vertex="1" parent="wIFYtktn1aGhjq1MG3Bt-1784">
          <mxGeometry x="439" y="660" width="100" height="40" as="geometry" />
        </mxCell>
        <mxCell id="wIFYtktn1aGhjq1MG3Bt-1835" value="" style="edgeStyle=entityRelationEdgeStyle;rounded=0;orthogonalLoop=1;jettySize=auto;html=1;startArrow=none;endArrow=none;segment=10;curved=1;sourcePerimeterSpacing=0;targetPerimeterSpacing=0;" edge="1" target="wIFYtktn1aGhjq1MG3Bt-1836" source="wIFYtktn1aGhjq1MG3Bt-1803" parent="wIFYtktn1aGhjq1MG3Bt-1784">
          <mxGeometry relative="1" as="geometry">
            <mxPoint x="-770" y="700" as="sourcePoint" />
          </mxGeometry>
        </mxCell>
        <mxCell id="wIFYtktn1aGhjq1MG3Bt-1864" style="rounded=0;orthogonalLoop=1;jettySize=auto;html=1;startArrow=none;endArrow=none;segment=10;sourcePerimeterSpacing=0;targetPerimeterSpacing=0;exitX=1;exitY=0.5;exitDx=0;exitDy=0;entryX=0;entryY=0.5;entryDx=0;entryDy=0;fillColor=#dae8fc;strokeColor=#6c8ebf;" edge="1" parent="wIFYtktn1aGhjq1MG3Bt-1784" source="wIFYtktn1aGhjq1MG3Bt-1836" target="wIFYtktn1aGhjq1MG3Bt-1852">
          <mxGeometry relative="1" as="geometry" />
        </mxCell>
        <mxCell id="wIFYtktn1aGhjq1MG3Bt-1836" value="工作流模型" style="ellipse;whiteSpace=wrap;html=1;align=center;treeFolding=1;treeMoving=1;newEdgeStyle={&quot;edgeStyle&quot;:&quot;entityRelationEdgeStyle&quot;,&quot;startArrow&quot;:&quot;none&quot;,&quot;endArrow&quot;:&quot;none&quot;,&quot;segment&quot;:10,&quot;curved&quot;:1,&quot;sourcePerimeterSpacing&quot;:0,&quot;targetPerimeterSpacing&quot;:0};" vertex="1" parent="wIFYtktn1aGhjq1MG3Bt-1784">
          <mxGeometry x="439" y="810" width="100" height="40" as="geometry" />
        </mxCell>
        <mxCell id="wIFYtktn1aGhjq1MG3Bt-1837" value="" style="edgeStyle=entityRelationEdgeStyle;rounded=0;orthogonalLoop=1;jettySize=auto;html=1;startArrow=none;endArrow=none;segment=10;curved=1;sourcePerimeterSpacing=0;targetPerimeterSpacing=0;" edge="1" target="wIFYtktn1aGhjq1MG3Bt-1838" source="wIFYtktn1aGhjq1MG3Bt-1803" parent="wIFYtktn1aGhjq1MG3Bt-1784">
          <mxGeometry relative="1" as="geometry">
            <mxPoint x="-770" y="700" as="sourcePoint" />
          </mxGeometry>
        </mxCell>
        <mxCell id="wIFYtktn1aGhjq1MG3Bt-1863" style="rounded=0;orthogonalLoop=1;jettySize=auto;html=1;startArrow=none;endArrow=none;segment=10;sourcePerimeterSpacing=0;targetPerimeterSpacing=0;exitX=1;exitY=0.5;exitDx=0;exitDy=0;entryX=0;entryY=0.5;entryDx=0;entryDy=0;fillColor=#dae8fc;strokeColor=#6c8ebf;" edge="1" parent="wIFYtktn1aGhjq1MG3Bt-1784" source="wIFYtktn1aGhjq1MG3Bt-1838" target="wIFYtktn1aGhjq1MG3Bt-1852">
          <mxGeometry relative="1" as="geometry">
            <mxPoint x="799" y="360" as="targetPoint" />
          </mxGeometry>
        </mxCell>
        <mxCell id="wIFYtktn1aGhjq1MG3Bt-1838" value="形式化规约" style="ellipse;whiteSpace=wrap;html=1;align=center;treeFolding=1;treeMoving=1;newEdgeStyle={&quot;edgeStyle&quot;:&quot;entityRelationEdgeStyle&quot;,&quot;startArrow&quot;:&quot;none&quot;,&quot;endArrow&quot;:&quot;none&quot;,&quot;segment&quot;:10,&quot;curved&quot;:1,&quot;sourcePerimeterSpacing&quot;:0,&quot;targetPerimeterSpacing&quot;:0};" vertex="1" parent="wIFYtktn1aGhjq1MG3Bt-1784">
          <mxGeometry x="439" y="760" width="100" height="40" as="geometry" />
        </mxCell>
        <mxCell id="wIFYtktn1aGhjq1MG3Bt-1839" value="" style="edgeStyle=entityRelationEdgeStyle;rounded=0;orthogonalLoop=1;jettySize=auto;html=1;startArrow=none;endArrow=none;segment=10;curved=1;sourcePerimeterSpacing=0;targetPerimeterSpacing=0;" edge="1" target="wIFYtktn1aGhjq1MG3Bt-1840" source="wIFYtktn1aGhjq1MG3Bt-1803" parent="wIFYtktn1aGhjq1MG3Bt-1784">
          <mxGeometry relative="1" as="geometry">
            <mxPoint x="-770" y="700" as="sourcePoint" />
          </mxGeometry>
        </mxCell>
        <mxCell id="wIFYtktn1aGhjq1MG3Bt-1862" style="rounded=0;orthogonalLoop=1;jettySize=auto;html=1;startArrow=none;endArrow=none;segment=10;sourcePerimeterSpacing=0;targetPerimeterSpacing=0;exitX=1;exitY=0.5;exitDx=0;exitDy=0;entryX=0;entryY=0.5;entryDx=0;entryDy=0;fillColor=#dae8fc;strokeColor=#6c8ebf;" edge="1" parent="wIFYtktn1aGhjq1MG3Bt-1784" source="wIFYtktn1aGhjq1MG3Bt-1840" target="wIFYtktn1aGhjq1MG3Bt-1852">
          <mxGeometry relative="1" as="geometry" />
        </mxCell>
        <mxCell id="wIFYtktn1aGhjq1MG3Bt-1840" value="有限状态机" style="ellipse;whiteSpace=wrap;html=1;align=center;treeFolding=1;treeMoving=1;newEdgeStyle={&quot;edgeStyle&quot;:&quot;entityRelationEdgeStyle&quot;,&quot;startArrow&quot;:&quot;none&quot;,&quot;endArrow&quot;:&quot;none&quot;,&quot;segment&quot;:10,&quot;curved&quot;:1,&quot;sourcePerimeterSpacing&quot;:0,&quot;targetPerimeterSpacing&quot;:0};" vertex="1" parent="wIFYtktn1aGhjq1MG3Bt-1784">
          <mxGeometry x="439" y="710" width="100" height="40" as="geometry" />
        </mxCell>
        <mxCell id="wIFYtktn1aGhjq1MG3Bt-1843" value="" style="orthogonalLoop=1;jettySize=auto;html=1;rounded=0;exitX=1;exitY=0.5;exitDx=0;exitDy=0;entryX=0;entryY=0.5;entryDx=0;entryDy=0;fillColor=#d5e8d4;strokeColor=#82b366;" edge="1" parent="wIFYtktn1aGhjq1MG3Bt-1784" source="wIFYtktn1aGhjq1MG3Bt-1811" target="wIFYtktn1aGhjq1MG3Bt-1853">
          <mxGeometry width="100" relative="1" as="geometry">
            <mxPoint x="559" y="140" as="sourcePoint" />
            <mxPoint x="749" y="160" as="targetPoint" />
          </mxGeometry>
        </mxCell>
        <mxCell id="wIFYtktn1aGhjq1MG3Bt-1844" value="" style="orthogonalLoop=1;jettySize=auto;html=1;rounded=0;exitX=1;exitY=0.5;exitDx=0;exitDy=0;entryX=0;entryY=0.5;entryDx=0;entryDy=0;fillColor=#d5e8d4;strokeColor=#82b366;" edge="1" parent="wIFYtktn1aGhjq1MG3Bt-1784" source="wIFYtktn1aGhjq1MG3Bt-1813" target="wIFYtktn1aGhjq1MG3Bt-1853">
          <mxGeometry width="100" relative="1" as="geometry">
            <mxPoint x="529" y="190" as="sourcePoint" />
            <mxPoint x="749" y="270" as="targetPoint" />
          </mxGeometry>
        </mxCell>
        <mxCell id="wIFYtktn1aGhjq1MG3Bt-1847" value="" style="orthogonalLoop=1;jettySize=auto;html=1;rounded=0;exitX=1;exitY=0.5;exitDx=0;exitDy=0;entryX=0;entryY=0.5;entryDx=0;entryDy=0;fillColor=#d5e8d4;strokeColor=#82b366;" edge="1" parent="wIFYtktn1aGhjq1MG3Bt-1784" source="wIFYtktn1aGhjq1MG3Bt-1830" target="wIFYtktn1aGhjq1MG3Bt-1853">
          <mxGeometry width="100" relative="1" as="geometry">
            <mxPoint x="609" y="410" as="sourcePoint" />
            <mxPoint x="769" y="200" as="targetPoint" />
          </mxGeometry>
        </mxCell>
        <mxCell id="wIFYtktn1aGhjq1MG3Bt-1849" value="" style="orthogonalLoop=1;jettySize=auto;html=1;rounded=0;exitX=1;exitY=0.5;exitDx=0;exitDy=0;entryX=0;entryY=0.5;entryDx=0;entryDy=0;fillColor=#d5e8d4;strokeColor=#82b366;" edge="1" parent="wIFYtktn1aGhjq1MG3Bt-1784" source="wIFYtktn1aGhjq1MG3Bt-1840" target="wIFYtktn1aGhjq1MG3Bt-1853">
          <mxGeometry width="100" relative="1" as="geometry">
            <mxPoint x="599" y="670" as="sourcePoint" />
            <mxPoint x="769" y="180" as="targetPoint" />
          </mxGeometry>
        </mxCell>
        <mxCell id="wIFYtktn1aGhjq1MG3Bt-1850" value="" style="orthogonalLoop=1;jettySize=auto;html=1;rounded=0;exitX=1;exitY=0.5;exitDx=0;exitDy=0;entryX=0;entryY=0.5;entryDx=0;entryDy=0;fillColor=#d5e8d4;strokeColor=#82b366;" edge="1" parent="wIFYtktn1aGhjq1MG3Bt-1784" source="wIFYtktn1aGhjq1MG3Bt-1838" target="wIFYtktn1aGhjq1MG3Bt-1853">
          <mxGeometry width="100" relative="1" as="geometry">
            <mxPoint x="519" y="760" as="sourcePoint" />
            <mxPoint x="769" y="180" as="targetPoint" />
          </mxGeometry>
        </mxCell>
        <mxCell id="wIFYtktn1aGhjq1MG3Bt-1853" value="&lt;span style=&quot;font-size: 19px; font-weight: 700; text-wrap: nowrap;&quot;&gt;可用于设计测试行为/操作的方法&lt;/span&gt;" style="rounded=1;whiteSpace=wrap;html=1;" vertex="1" parent="wIFYtktn1aGhjq1MG3Bt-1784">
          <mxGeometry x="799" y="180" width="280" height="60" as="geometry" />
        </mxCell>
        <mxCell id="wIFYtktn1aGhjq1MG3Bt-1852" value="&lt;span style=&quot;font-size: 19px; font-weight: 700; text-wrap: nowrap;&quot;&gt;可用于生成测试数据的方法&lt;/span&gt;" style="rounded=1;whiteSpace=wrap;html=1;" vertex="1" parent="wIFYtktn1aGhjq1MG3Bt-1784">
          <mxGeometry x="799" y="430" width="240" height="50" as="geometry" />
        </mxCell>
        <mxCell id="wIFYtktn1aGhjq1MG3Bt-1865" value="可用于评价测试充分性的方法" style="rounded=1;whiteSpace=wrap;html=1;fontSize=19;fontStyle=1" vertex="1" parent="wIFYtktn1aGhjq1MG3Bt-1784">
          <mxGeometry x="799" y="670" width="260" height="40" as="geometry" />
        </mxCell>
      </root>
    </mxGraphModel>
  </diagram>
</mxfile>
